<svg width="980" height="520" viewBox="0 0 980 520" fill="none" xmlns="http://www.w3.org/2000/svg">
  <rect width="980" height="520" rx="32" fill="#0F172A"/>
  <circle cx="786" cy="116" r="96" fill="#2563EB" fill-opacity="0.15"/>
  <rect x="100" y="68" width="780" height="384" rx="30" fill="#111C34" stroke="#334155"/>
  <rect x="144" y="108" width="184" height="16" rx="8" fill="#60A5FA"/>
  <rect x="144" y="138" width="116" height="10" rx="5" fill="#475569"/>
  <rect x="144" y="184" width="692" height="94" rx="22" fill="#1E293B"/>
  <rect x="182" y="212" width="514" height="14" rx="7" fill="#64748B"/>
  <rect x="182" y="238" width="396" height="12" rx="6" fill="#475569"/>
  <circle cx="168" cy="340" r="10" stroke="#3B82F6" stroke-width="4"/>
  <rect x="194" y="332" width="264" height="12" rx="6" fill="#64748B"/>
  <circle cx="168" cy="382" r="10" stroke="#475569" stroke-width="4"/>
  <rect x="194" y="374" width="334" height="12" rx="6" fill="#475569"/>
  <circle cx="168" cy="424" r="10" stroke="#475569" stroke-width="4"/>
  <rect x="194" y="416" width="286" height="12" rx="6" fill="#475569"/>
  <rect x="684" y="352" width="108" height="38" rx="19" fill="#2563EB"/>
  <text x="715" y="377" fill="#FFFFFF" font-family="Arial, sans-serif" font-size="18" font-weight="700">Check</text>
  <rect x="612" y="408" width="18" height="18" rx="9" stroke="#64748B" stroke-width="3"/>
</svg>
