<svg width="820" height="420" viewBox="0 0 820 420" fill="none" xmlns="http://www.w3.org/2000/svg">
  <rect width="820" height="420" rx="28" fill="#F8FAFC"/>
  <circle cx="664" cy="94" r="88" fill="#2563EB" fill-opacity="0.1"/>
  <circle cx="138" cy="332" r="74" fill="#0F172A" fill-opacity="0.05"/>
  <rect x="56" y="82" width="244" height="246" rx="28" fill="#FFFFFF" stroke="#DBEAFE"/>
  <circle cx="178" cy="148" r="54" fill="#2563EB"/>
  <path d="M149 170C157 153 175 141 198 138C201 158 190 180 170 192C159 188 153 181 149 170Z" fill="#BFDBFE"/>
  <rect x="98" y="228" width="160" height="12" rx="6" fill="#1E3A8A"/>
  <rect x="112" y="254" width="132" height="10" rx="5" fill="#94A3B8"/>
  <rect x="92" y="282" width="172" height="28" rx="14" fill="#E0ECFF"/>
  <text x="114" y="301" fill="#2563EB" font-family="Arial, sans-serif" font-size="16" font-weight="700">Aha moment</text>
  <rect x="344" y="72" width="420" height="120" rx="30" fill="#FFFFFF" stroke="#E2E8F0"/>
  <text x="378" y="118" fill="#2563EB" font-family="Arial, sans-serif" font-size="20" font-weight="700">ENGLISH MODE</text>
  <text x="378" y="152" fill="#334155" font-family="Arial, sans-serif" font-size="24">Rotational motion is linear motion</text>
  <text x="378" y="182" fill="#334155" font-family="Arial, sans-serif" font-size="24">moving around a fixed axis.</text>
  <rect x="344" y="214" width="420" height="126" rx="30" fill="#0F172A"/>
  <text x="378" y="260" fill="#93C5FD" font-family="Arial, sans-serif" font-size="20" font-weight="700">HINGLISH MODE</text>
  <text x="378" y="294" fill="#F8FAFC" font-family="Arial, sans-serif" font-size="24">Samjho, linear motion ka circular cousin</text>
  <text x="378" y="324" fill="#F8FAFC" font-family="Arial, sans-serif" font-size="24">jab axis ke around ghoomta hai.</text>
</svg>
