<svg width="820" height="420" viewBox="0 0 820 420" fill="none" xmlns="http://www.w3.org/2000/svg">
  <rect width="820" height="420" rx="28" fill="#0F172A"/>
  <circle cx="688" cy="88" r="100" fill="#2563EB" fill-opacity="0.18"/>
  <circle cx="112" cy="338" r="84" fill="#60A5FA" fill-opacity="0.14"/>
  <rect x="48" y="52" width="332" height="316" rx="22" fill="#111C34" stroke="#334155"/>
  <rect x="74" y="86" width="182" height="18" rx="9" fill="#DBEAFE"/>
  <rect x="74" y="120" width="264" height="12" rx="6" fill="#334155"/>
  <rect x="74" y="148" width="232" height="12" rx="6" fill="#334155"/>
  <rect x="74" y="176" width="208" height="12" rx="6" fill="#334155"/>
  <rect x="74" y="222" width="278" height="96" rx="18" fill="#172554"/>
  <rect x="96" y="246" width="172" height="10" rx="5" fill="#93C5FD"/>
  <rect x="96" y="268" width="228" height="10" rx="5" fill="#60A5FA" fill-opacity="0.5"/>
  <rect x="96" y="290" width="138" height="10" rx="5" fill="#60A5FA" fill-opacity="0.3"/>
  <rect x="412" y="78" width="356" height="264" rx="28" fill="#F8FAFC"/>
  <rect x="448" y="118" width="130" height="18" rx="9" fill="#2563EB"/>
  <rect x="448" y="156" width="264" height="14" rx="7" fill="#CBD5E1"/>
  <rect x="448" y="184" width="220" height="14" rx="7" fill="#CBD5E1"/>
  <rect x="448" y="226" width="286" height="76" rx="20" fill="#E0ECFF"/>
  <rect x="474" y="246" width="132" height="12" rx="6" fill="#2563EB"/>
  <rect x="474" y="268" width="218" height="10" rx="5" fill="#93C5FD"/>
  <rect x="474" y="286" width="174" height="10" rx="5" fill="#BFDBFE"/>
  <rect x="48" y="24" width="120" height="14" rx="7" fill="#1E3A8A"/>
  <rect x="190" y="24" width="84" height="14" rx="7" fill="#334155"/>
</svg>
